<svg width="14" height="14" viewBox="0 0 14 14" fill="none" xmlns="http://www.w3.org/2000/svg">
<path d="M6.07267 0.958884C6.40932 0.124382 7.59077 0.124382 7.92743 0.958884L9.21894 4.1603C9.26612 4.27725 9.37527 4.35756 9.50096 4.36782L12.7451 4.63252C13.6247 4.7043 13.9868 5.79725 13.3242 6.3801L10.8625 8.54521C10.7714 8.62534 10.731 8.74864 10.7571 8.86713L11.5443 12.4452C11.7409 13.339 10.7331 14.0055 9.98762 13.4747L7.19339 11.4851C7.07766 11.4027 6.92243 11.4027 6.80671 11.4851L4.01248 13.4747C3.26698 14.0055 2.25919 13.339 2.45582 12.4452L3.24301 8.86714C3.26908 8.74864 3.22871 8.62534 3.1376 8.54521L0.675843 6.38011C0.0131364 5.79727 0.375309 4.7043 1.25493 4.63252L4.49914 4.36782C4.62483 4.35756 4.73397 4.27725 4.78115 4.16029L6.07267 0.958884Z" fill="#FF9F38"/>
</svg>
