<svg width="20" height="20" viewBox="0 0 20 20" fill="none" xmlns="http://www.w3.org/2000/svg">
<path fill-rule="evenodd" clip-rule="evenodd" d="M7.89082 2.22547C8.68135 0.364662 11.3187 0.364662 12.1093 2.22547L13.5371 5.58637L17.0647 5.88183C19.0607 6.04901 19.8968 8.51627 18.4136 9.86245L15.7159 12.3109L16.599 16.3774C17.0451 18.4319 14.7204 19.9526 13.0167 18.7207L10 16.5395L6.98336 18.7207C5.27967 19.9526 2.95499 18.4319 3.40113 16.3774L4.28416 12.3109L1.58643 9.86246C0.103187 8.51629 0.939256 6.049 2.93531 5.88183L6.46301 5.58637L7.89082 2.22547ZM10.4219 2.94232C10.2638 2.57016 9.7363 2.57016 9.5782 2.94232L8.04229 6.55767C7.84283 7.02717 7.39985 7.34766 6.89152 7.39023L3.08832 7.70877C2.68911 7.7422 2.5219 8.23566 2.81855 8.50489L5.71232 11.1312C6.07624 11.4615 6.23621 11.9609 6.13192 12.4412L5.19271 16.7664C5.10348 17.1773 5.56842 17.4814 5.90915 17.2351L9.19438 14.8597C9.67522 14.512 10.3249 14.512 10.8057 14.8597L14.0909 17.2351C14.4317 17.4814 14.8966 17.1773 14.8074 16.7664L13.8682 12.4412C13.7639 11.9609 13.9238 11.4615 14.2877 11.1312L17.1815 8.50489C17.4781 8.23565 17.3109 7.7422 16.9117 7.70877L13.1086 7.39023C12.6002 7.34766 12.1572 7.02716 11.9578 6.55767L10.4219 2.94232Z" fill="#12131A"/>
</svg>
