<svg width="12" height="12" viewBox="0 0 12 12" fill="none" xmlns="http://www.w3.org/2000/svg">
<path d="M5.18857 0.713901C5.48314 -0.0162874 6.51691 -0.0162875 6.81148 0.713901L7.94156 3.51514C7.98284 3.61747 8.07834 3.68774 8.18833 3.69672L11.0269 3.92834C11.7966 3.99114 12.1135 4.94747 11.5336 5.45746L9.37966 7.35194C9.29995 7.42205 9.26462 7.52994 9.28743 7.63362L9.97622 10.7644C10.1483 11.5465 9.26646 12.1297 8.61415 11.6652L6.1692 9.92436C6.06794 9.85226 5.93211 9.85226 5.83086 9.92436L3.38591 11.6652C2.73359 12.1297 1.85177 11.5465 2.02383 10.7644L2.71262 7.63362C2.73543 7.52994 2.7001 7.42205 2.62039 7.35194L0.466347 5.45748C-0.113521 4.94749 0.20338 3.99114 0.973051 3.92834L3.81173 3.69672C3.92171 3.68774 4.01721 3.61747 4.0585 3.51514L5.18857 0.713901Z" fill="#FF9F38"/>
</svg>
