<svg width="20" height="20" viewBox="0 0 20 20" fill="none" xmlns="http://www.w3.org/2000/svg">
<path d="M8.84087 2.44861C9.26169 1.40548 10.7385 1.40548 11.1593 2.4486L12.7737 6.45037C12.8327 6.59656 12.9691 6.69695 13.1262 6.70977L17.1814 7.04065C18.2809 7.13037 18.7336 8.49656 17.9052 9.22512L14.8281 11.9315C14.7143 12.0317 14.6638 12.1858 14.6964 12.3339L15.6804 16.8065C15.9262 17.9237 14.6664 18.7568 13.7345 18.0933L10.2418 15.6064C10.0971 15.5034 9.90307 15.5034 9.75842 15.6064L6.26563 18.0933C5.33375 18.7568 4.07401 17.9237 4.31981 16.8065L5.30379 12.3339C5.33638 12.1858 5.28591 12.0317 5.17203 11.9315L2.09483 9.22514C1.26645 8.49658 1.71917 7.13037 2.8187 7.04065L6.87395 6.70977C7.03107 6.69695 7.1675 6.59656 7.22647 6.45037L8.84087 2.44861Z" fill="#FF9F38"/>
</svg>
